<svg xmlns="http://www.w3.org/2000/svg" width="500" viewBox="0 0 375 375" height="500" version="1.2"><defs><clipPath id="a"><path d="M0 23h375v315.746H0Zm0 0"/></clipPath><clipPath id="b"><path d="M244.695 23.438H130.293C58.328 23.438 0 80.422 0 150.715c0 50.887 30.578 94.785 74.758 115.148v60.95c0 4.503 2.605 8.597 6.68 10.511a11.61 11.61 0 0 0 12.351-1.586l50.43-41.925a68.5 68.5 0 0 1 43.785-15.825h56.691c71.97 0 130.305-56.984 130.305-127.277.004-70.29-58.336-127.274-130.305-127.274m0 0"/></clipPath><clipPath id="d"><path d="M0 .281h375v315.465H0Zm0 0"/></clipPath><clipPath id="e"><path d="M244.695.438H130.293C58.328.438 0 57.422 0 127.715c0 50.887 30.578 94.785 74.758 115.148v60.95c0 4.503 2.605 8.597 6.68 10.511a11.61 11.61 0 0 0 12.351-1.586l50.43-41.925a68.5 68.5 0 0 1 43.785-15.825h56.691c71.97 0 130.305-56.984 130.305-127.277C375.004 57.42 316.664.438 244.695.438m0 0"/></clipPath><clipPath id="c"><path d="M0 0h375v316H0z"/></clipPath><clipPath id="f"><path d="M180.098 120.797h41.52v41.52h-41.52Zm0 0"/></clipPath><clipPath id="g"><path d="M200.86 120.797c-11.465 0-20.762 9.293-20.762 20.762 0 11.464 9.297 20.757 20.761 20.757 11.465 0 20.758-9.293 20.758-20.757 0-11.47-9.293-20.762-20.758-20.762m0 0"/></clipPath><clipPath id="i"><path d="M.098.797h41.52v41.52H.097Zm0 0"/></clipPath><clipPath id="j"><path d="M20.86.797C9.394.797.097 10.09.097 21.559c0 11.464 9.297 20.757 20.761 20.757 11.465 0 20.758-9.293 20.758-20.757 0-11.47-9.293-20.762-20.758-20.762m0 0"/></clipPath><clipPath id="h"><path d="M0 0h42v43H0z"/></clipPath><clipPath id="k"><path d="M292.727 120.797h41.523v41.52h-41.523Zm0 0"/></clipPath><clipPath id="l"><path d="M313.488 120.797c-11.465 0-20.761 9.293-20.761 20.762 0 11.464 9.296 20.757 20.761 20.757s20.762-9.293 20.762-20.757c0-11.47-9.297-20.762-20.762-20.762m0 0"/></clipPath><clipPath id="n"><path d="M.727.797H42.25v41.52H.727Zm0 0"/></clipPath><clipPath id="o"><path d="M21.488.797C10.023.797.727 10.09.727 21.559c0 11.464 9.296 20.757 20.761 20.757S42.25 33.023 42.25 21.56C42.25 10.09 32.953.798 21.488.798m0 0"/></clipPath><clipPath id="m"><path d="M0 0h43v43H0z"/></clipPath><clipPath id="p"><path d="M209 172h91v28h-91Zm0 0"/></clipPath><clipPath id="q"><path d="m254.566 227.602-48.789-48.79 48.79-48.789 48.788 48.79Zm0 0"/></clipPath><clipPath id="r"><path d="M260.402 221.77 297 185.168a8.245 8.245 0 0 0 0-11.664l-36.598-36.602c-3.222-3.222-8.449-3.222-11.668 0l-36.601 36.602a8.245 8.245 0 0 0 0 11.664l36.601 36.602a8.25 8.25 0 0 0 11.668 0m0 0"/></clipPath><clipPath id="s"><path d="m254.566 227.602-48.257-48.258 48.257-48.262 48.262 48.262Zm0 0"/></clipPath><clipPath id="t"><path d="m254.566 227.602-48.257-48.258 48.257-48.262 48.262 48.262Zm0 0"/></clipPath><clipPath id="u"><path d="m254.566 227.602-48.257-48.258 48.257-48.262 48.262 48.262Zm0 0"/></clipPath></defs><g clip-path="url(#a)"><g clip-path="url(#b)"><g clip-path="url(#c)" transform="translate(0 23)"><g clip-path="url(#d)"><g clip-path="url(#e)"><path style="stroke:none;fill-rule:nonzero;fill:#ff9500;fill-opacity:1" d="M0 .438h375.55v328.125H0Zm0 0"/></g></g></g></g></g><g clip-path="url(#f)"><g clip-path="url(#g)"><g clip-path="url(#h)" transform="translate(180 120)"><g clip-path="url(#i)"><g clip-path="url(#j)"><path style="stroke:none;fill-rule:nonzero;fill:#000;fill-opacity:1" d="M.098.797h41.52v41.52H.097Zm0 0"/></g></g></g></g></g><g clip-path="url(#k)"><g clip-path="url(#l)"><g clip-path="url(#m)" transform="translate(292 120)"><g clip-path="url(#n)"><g clip-path="url(#o)"><path style="stroke:none;fill-rule:nonzero;fill:#000;fill-opacity:1" d="M.727.797H42.25v41.52H.727Zm0 0"/></g></g></g></g></g><g clip-path="url(#p)"><g clip-path="url(#q)"><g clip-path="url(#r)"><g clip-path="url(#s)"><g clip-path="url(#t)"><g clip-path="url(#u)"><path style="stroke:none;fill-rule:nonzero;fill:#000;fill-opacity:1" d="m302.828 179.344-6.734-6.735c-22.899 22.895-60.156 22.899-83.055 0l-6.73 6.735c26.609 26.61 69.906 26.61 96.52 0m0 0"/></g></g></g></g></g></g></svg>